<?xml version="1.0" encoding="UTF-8"?>
<svg width="24px" height="24px" viewBox="0 0 24 24" version="1.1" xmlns="http://www.w3.org/2000/svg">
    <g stroke="none" stroke-width="1" fill="none" fill-rule="evenodd">
        <g fill-rule="nonzero">
            <path d="M5.042,15.165 C5.042,16.486 3.973,17.555 2.652,17.555 C1.331,17.555 0.262,16.486 0.262,15.165 C0.262,13.844 1.331,12.775 2.652,12.775 L5.042,12.775 L5.042,15.165 Z" fill="currentColor"></path>
            <path d="M6.238,15.165 C6.238,13.844 7.307,12.775 8.628,12.775 C9.949,12.775 11.018,13.844 11.018,15.165 L11.018,21.142 C11.018,22.463 9.949,23.532 8.628,23.532 C7.307,23.532 6.238,22.463 6.238,21.142 L6.238,15.165 Z" fill="currentColor"></path>
            <path d="M8.628,5.042 C7.307,5.042 6.238,3.973 6.238,2.652 C6.238,1.331 7.307,0.262 8.628,0.262 C9.949,0.262 11.018,1.331 11.018,2.652 L11.018,5.042 L8.628,5.042 Z" fill="currentColor"></path>
            <path d="M8.628,6.238 C9.949,6.238 11.018,7.307 11.018,8.628 C11.018,9.949 9.949,11.018 8.628,11.018 L2.652,11.018 C1.331,11.018 0.262,9.949 0.262,8.628 C0.262,7.307 1.331,6.238 2.652,6.238 L8.628,6.238 Z" fill="currentColor"></path>
            <path d="M18.752,8.628 C18.752,7.307 19.821,6.238 21.142,6.238 C22.463,6.238 23.532,7.307 23.532,8.628 C23.532,9.949 22.463,11.018 21.142,11.018 L18.752,11.018 L18.752,8.628 Z" fill="currentColor"></path>
            <path d="M17.555,8.628 C17.555,9.949 16.486,11.018 15.165,11.018 C13.844,11.018 12.775,9.949 12.775,8.628 L12.775,2.652 C12.775,1.331 13.844,0.262 15.165,0.262 C16.486,0.262 17.555,1.331 17.555,2.652 L17.555,8.628 Z" fill="currentColor"></path>
            <path d="M15.165,18.752 C16.486,18.752 17.555,19.821 17.555,21.142 C17.555,22.463 16.486,23.532 15.165,23.532 C13.844,23.532 12.775,22.463 12.775,21.142 L12.775,18.752 L15.165,18.752 Z" fill="currentColor"></path>
            <path d="M15.165,17.555 C13.844,17.555 12.775,16.486 12.775,15.165 C12.775,13.844 13.844,12.775 15.165,12.775 L21.142,12.775 C22.463,12.775 23.532,13.844 23.532,15.165 C23.532,16.486 22.463,17.555 21.142,17.555 L15.165,17.555 Z" fill="currentColor"></path>
        </g>
    </g>
</svg>
